<?xml version="1.0" standalone="no"?>
<!DOCTYPE svg PUBLIC "-//W3C//DTD SVG 20010904//EN"
 "http://www.w3.org/TR/2001/REC-SVG-20010904/DTD/svg10.dtd">
<svg version="1.0" xmlns="http://www.w3.org/2000/svg"
 width="500.000000pt" height="500.000000pt" viewBox="0 0 500.000000 500.000000"
 preserveAspectRatio="xMidYMid meet">

<g transform="translate(0.000000,500.000000) scale(0.100000,-0.100000)"
fill="#000000" stroke="none">
<path d="M2100 2725 l0 -846 288 3 c278 3 289 4 340 27 145 65 209 241 200
546 -4 124 -9 160 -28 208 -26 70 -67 118 -117 142 -36 17 -36 18 -14 27 46
16 82 51 108 101 25 48 28 63 31 191 7 254 -32 351 -168 415 -55 26 -56 26
-347 29 l-293 3 0 -846z m456 564 c17 -19 19 -38 19 -158 0 -174 -8 -191 -90
-191 l-55 0 0 185 0 185 53 0 c42 0 58 -5 73 -21z m-1 -641 c35 -31 44 -79 45
-238 0 -187 -23 -229 -127 -230 l-43 0 0 245 0 245 49 0 c37 0 57 -6 76 -22z"/>
<path d="M2979 1865 c-64 -35 -81 -137 -33 -194 53 -63 146 -63 199 0 20 24
25 41 25 82 -1 56 -13 79 -57 109 -33 21 -97 23 -134 3z"/>
</g>
</svg>
